<?xml version="1.0" encoding="UTF-8"?>
<svg width="512px" height="512px" viewBox="0 0 512 512" version="1.1" xmlns="http://www.w3.org/2000/svg" xmlns:xlink="http://www.w3.org/1999/xlink">
    <!-- Generator: Sketch 50.2 (55047) - http://www.bohemiancoding.com/sketch -->
    <title>play/ic_launcher_APP</title>
    <desc>Created with Sketch.</desc>
    <defs></defs>
    <g id="play/ic_launcher_APP" stroke="none" stroke-width="1" fill="none" fill-rule="evenodd">
        <rect id="Rectangle" fill="#DA0928" fill-rule="nonzero" x="0" y="0" width="512" height="512"></rect>
        <path d="M67.3210938,169.704687 C67.3210938,158.942134 69.3710733,149.012545 73.4710938,139.915625 C77.5711143,130.818705 83.4007435,122.971127 90.9601563,116.372656 C98.5195691,109.774186 107.680415,104.617206 118.442969,100.901563 C129.205523,97.1859189 141.249152,95.328125 154.574219,95.328125 C169.949296,95.328125 182.985884,97.5702901 193.684375,102.054688 C204.382866,106.539085 213.031217,112.400745 219.629688,119.639844 C226.228158,126.878942 231.032798,135.014799 234.04375,144.047656 C237.054703,153.080514 238.560156,162.145267 238.560156,171.242188 L238.560156,194.304688 C238.560156,197.635954 238.015631,200.006243 236.926563,201.415625 C235.837495,202.825007 233.755484,203.529688 230.680469,203.529688 L172.255469,203.529688 C169.436705,203.529688 167.514849,202.889069 166.489844,201.607813 C165.464839,200.326556 165.016406,198.276577 165.144531,195.457812 L165.144531,173.740625 C165.144531,172.71562 164.920315,171.594537 164.471875,170.377344 C164.023435,169.16015 163.350786,168.007037 162.453906,166.917969 C161.557027,165.828901 160.339852,164.900004 158.802344,164.13125 C157.264836,163.362496 155.471104,162.978125 153.421094,162.978125 C149.192948,162.978125 146.214071,164.003115 144.484375,166.053125 C142.754679,168.103135 141.889844,170.409362 141.889844,172.971875 L141.889844,299.815625 C141.889844,302.378138 142.882803,304.87655 144.86875,307.310938 C146.854698,309.745325 150.089821,310.9625 154.574219,310.9625 C156.752355,310.9625 158.578118,310.61016 160.051563,309.905469 C161.525007,309.200778 162.678121,308.335943 163.510938,307.310938 C164.343754,306.285932 164.952342,305.100788 165.336719,303.755469 C165.721096,302.41015 165.913281,301.096881 165.913281,299.815625 L165.913281,270.795313 C165.913281,267.848423 166.393745,265.766412 167.354688,264.549219 C168.31563,263.332025 170.141393,262.723437 172.832031,262.723437 L231.833594,262.723437 C234.908609,262.723437 236.99062,263.235932 238.079688,264.260938 C239.168756,265.285943 239.713281,267.27186 239.713281,270.21875 L239.713281,304.235937 C239.713281,316.407873 237.471116,327.138235 232.986719,336.427344 C228.502321,345.716453 222.416445,353.499969 214.728906,359.778125 C207.041368,366.056281 198.040677,370.764828 187.726563,373.903906 C177.412449,377.042984 166.361778,378.6125 154.574219,378.6125 C142.658534,378.6125 131.415678,377.010954 120.845313,373.807813 C110.274947,370.604671 101.018009,365.896125 93.0742188,359.682031 C85.1304291,353.467938 78.8523669,345.716453 74.2398438,336.427344 C69.6273208,327.138235 67.3210938,316.407873 67.3210938,304.235937 L67.3210938,169.704687 Z M273.478906,108.204687 C273.478906,102.695285 276.233566,99.940625 281.742969,99.940625 L359.963281,99.940625 C372.64772,99.940625 384.114792,101.926543 394.364844,105.898438 C404.614895,109.870332 413.39137,115.251529 420.694531,122.042187 C427.997693,128.832846 433.603105,136.712455 437.510937,145.68125 C441.418769,154.650045 443.372656,164.067138 443.372656,173.932812 L443.372656,189.115625 C443.372656,194.496902 442.411728,199.58982 440.489844,204.394531 C438.567959,209.199243 436.165639,213.491387 433.282812,217.271094 C430.399985,221.0508 427.325016,224.189831 424.057812,226.688281 C420.790609,229.186731 417.875794,230.884371 415.313281,231.78125 C417.747668,232.678129 420.822638,234.439831 424.538281,237.066406 C428.253925,239.692982 431.809358,243.056229 435.204687,247.15625 C438.600017,251.25627 441.514831,256.092941 443.949219,261.666406 C446.383606,267.239872 447.600781,273.421841 447.600781,280.2125 L447.600781,305.773438 C447.600781,315.510986 445.262523,324.543708 440.585937,332.871875 C435.909352,341.200042 429.727382,348.407001 422.039844,354.492969 C414.352305,360.578937 405.671923,365.351545 395.998437,368.810938 C386.324952,372.27033 376.491456,374 366.497656,374 L281.742969,374 C276.233566,374 273.478906,371.309402 273.478906,365.928125 L273.478906,108.204687 Z M344.780469,263.492188 L344.780469,306.35 L362.461719,306.35 C365.024231,306.35 367.426551,305.549227 369.66875,303.947656 C371.910949,302.346086 373.032031,300.135952 373.032031,297.317187 L373.032031,272.717188 C373.032031,270.539052 372.167196,268.457041 370.4375,266.471094 C368.707804,264.485146 365.985175,263.492188 362.269531,263.492188 L344.780469,263.492188 Z M344.780469,167.590625 L344.780469,204.10625 L360.155469,204.10625 C363.486735,204.10625 366.081241,203.369539 367.939062,201.896094 C369.796884,200.422649 370.725781,197.507834 370.725781,193.151562 L370.725781,178.353125 C370.725781,174.253105 369.63673,171.434383 367.458594,169.896875 C365.280458,168.359367 362.846107,167.590625 360.155469,167.590625 L344.780469,167.590625 Z" id="CB" fill="#F8E71C" fill-rule="nonzero"></path>
    </g>
</svg>